<svg id="a47ac3ccd1557f7fbdb769f1c535b2b9" xmlns="http://www.w3.org/2000/svg" width="29.121" height="29.121" viewBox="0 0 29.121 29.121">
  <path id="Path_37720" data-name="Path 37720" d="M14.56,0a14.56,14.56,0,1,0,14.56,14.56A14.56,14.56,0,0,0,14.56,0Zm0,26.694A12.134,12.134,0,1,1,26.694,14.56,12.134,12.134,0,0,1,14.56,26.694Z" fill="#0074bf"/>
  <path id="Path_37721" data-name="Path 37721" d="M18.905,16.094l-5.478-3.287V6.213a1.213,1.213,0,0,0-2.427,0v7.28a1.3,1.3,0,0,0,.588,1.04l6.067,3.64a1.213,1.213,0,1,0,1.25-2.08Z" transform="translate(2.347 1.067)" fill="#0074bf"/>
</svg>
