<svg id="_0b45ef45cac37489fec481dd0e1c7ee0" data-name="0b45ef45cac37489fec481dd0e1c7ee0" xmlns="http://www.w3.org/2000/svg" width="32.912" height="34.556" viewBox="0 0 32.912 34.556">
  <path id="Path_7987" data-name="Path 7987" d="M11.4,37.556a7.418,7.418,0,0,0,6.541-3.941,10.671,10.671,0,0,0,6.763,3.834,10.378,10.378,0,0,0,1.506.107A10.7,10.7,0,0,0,36.524,29.7a9.45,9.45,0,0,0,.28-1.308,9.7,9.7,0,0,0,.107-1.349v-.016h0a10.69,10.69,0,0,0-18.1-7.874V10.4A7.4,7.4,0,1,0,4,10.4V30.151A7.416,7.416,0,0,0,11.4,37.556Zm7.4-15.879A9.042,9.042,0,0,1,35.232,26.07L18.81,23.717Zm0,3.7,16.414,2.353c-.016.14-.025.272-.049.411s-.041.272-.066.4L18.81,26.21Zm0,4.772V27.872l15.83,2.271a9.02,9.02,0,0,1-16.011,1.613A7.376,7.376,0,0,0,18.81,30.151ZM5.646,10.4a5.759,5.759,0,1,1,11.519,0v9.05H5.646Zm0,10.7H17.164v9.05a5.759,5.759,0,1,1-11.519,0Z" transform="translate(-4 -3)" fill="#0074bf"/>
  <path id="Path_7988" data-name="Path 7988" d="M12.823,6a.823.823,0,0,0,0,1.646,3.29,3.29,0,0,1,3.291,3.291v4.937a.823.823,0,1,0,1.646,0V10.937A4.94,4.94,0,0,0,12.823,6Z" transform="translate(-5.418 -3.532)" fill="#0074bf"/>
</svg>
