<svg xmlns="http://www.w3.org/2000/svg" width="16.196" height="16.196" viewBox="0 0 16.196 16.196">
  <g id="Group_87168" data-name="Group 87168" transform="translate(-26 -374)">
    <g id="e5c08a5332ec1e6e31252ff52605e1a0" transform="translate(26 374)">
      <path id="Path_96123" data-name="Path 96123" d="M0,0H16.2V16.2H0Z" fill="none"/>
      <path id="Path_96124" data-name="Path 96124" d="M14.147,4.7h-2.7V3.35A1.345,1.345,0,0,0,10.1,2H7.4a1.345,1.345,0,0,0-1.35,1.35V4.7H3.35a1.339,1.339,0,0,0-1.343,1.35L2,13.472a1.345,1.345,0,0,0,1.35,1.35h10.8a1.345,1.345,0,0,0,1.35-1.35V6.049A1.345,1.345,0,0,0,14.147,4.7ZM7.4,3.35h2.7V4.7H7.4Zm6.748,10.123H3.35V6.049h10.8Z" transform="translate(-0.65 -0.65)" fill="#fff"/>
    </g>
  </g>
</svg>
