<svg id="calendar2" xmlns="http://www.w3.org/2000/svg" width="11.01" height="11.01" viewBox="0 0 11.01 11.01">
  <path id="Path_7970" data-name="Path 7970" d="M9.634,2.938H1.376a.688.688,0,0,0-.688.688V11.2a.688.688,0,0,0,.688.688H9.634a.688.688,0,0,0,.688-.688V3.626A.688.688,0,0,0,9.634,2.938ZM1.376,2.25A1.376,1.376,0,0,0,0,3.626V11.2a1.376,1.376,0,0,0,1.376,1.376H9.634A1.376,1.376,0,0,0,11.01,11.2V3.626A1.376,1.376,0,0,0,9.634,2.25Z" transform="translate(0 -1.562)" fill-rule="evenodd"/>
  <path id="Path_7971" data-name="Path 7971" d="M7.094,0a.344.344,0,0,1,.344.344V.688a.344.344,0,0,1-.688,0V.344A.344.344,0,0,1,7.094,0Zm6.193,0a.344.344,0,0,1,.344.344V.688a.344.344,0,0,1-.688,0V.344A.344.344,0,0,1,13.287,0Z" transform="translate(-4.686)" fill-rule="evenodd"/>
  <path id="Path_7972" data-name="Path 7972" d="M5.625,8.219a.344.344,0,0,1,.344-.344H12.85a.344.344,0,0,1,.344.344v.688a.344.344,0,0,1-.344.344H5.969a.344.344,0,0,1-.344-.344Z" transform="translate(-3.905 -5.467)"/>
</svg>
