<svg xmlns="http://www.w3.org/2000/svg" width="17.349" height="14.789" viewBox="0 0 17.349 14.789">
  <path id="_0294701bfa3b26cfab404696f6cf4390" data-name="0294701bfa3b26cfab404696f6cf4390" d="M16.746,6.1h-1.11l-.278-.867A2.6,2.6,0,0,0,12.895,3.5H8.454A2.6,2.6,0,0,0,5.99,5.278l-.278.867H4.6A2.6,2.6,0,0,0,2,8.748v6.939a2.6,2.6,0,0,0,2.6,2.6H16.746a2.6,2.6,0,0,0,2.6-2.6V8.748a2.6,2.6,0,0,0-2.6-2.646Zm.867,9.542a.867.867,0,0,1-.867.867H4.6a.867.867,0,0,1-.867-.867V8.7A.867.867,0,0,1,4.6,7.837H6.337a.867.867,0,0,0,.867-.59l.468-1.423a.867.867,0,0,1,.824-.59h4.441a.867.867,0,0,1,.824.59l.468,1.423a.867.867,0,0,0,.781.59h1.735a.867.867,0,0,1,.867.867ZM10.674,7.837a3.47,3.47,0,1,0,3.47,3.47A3.47,3.47,0,0,0,10.674,7.837Zm0,5.2a1.735,1.735,0,1,1,1.735-1.735A1.735,1.735,0,0,1,10.674,13.042Z" transform="translate(-2 -3.5)" fill="#26a57e"/>
</svg>
