<svg xmlns="http://www.w3.org/2000/svg" width="11.01" height="11.01" viewBox="0 0 11.01 11.01">
  <path id="_5e94a90cc30706fa992f8ced1c38048b" data-name="5e94a90cc30706fa992f8ced1c38048b" d="M5.771.264a5.5,5.5,0,1,0,5.5,5.5,5.514,5.514,0,0,0-5.5-5.5Zm0,1a4.506,4.506,0,1,1-4.507,4.5,4.494,4.494,0,0,1,4.507-4.5Zm-.008.994a.5.5,0,0,0-.5.51v3a.5.5,0,0,0,.149.354l2,2a.5.5,0,1,0,.705-.709L6.269,5.56V2.769a.5.5,0,0,0-.506-.51Z" transform="translate(-0.264 -0.264)" fill="#737070" fill-rule="evenodd"/>
</svg>
