<svg xmlns="http://www.w3.org/2000/svg" width="12.296" height="11.35" viewBox="0 0 12.296 11.35">
  <g id="c99263fe461093df70c06256a16e31ac" transform="translate(0 0)">
    <path id="Path_96116" data-name="Path 96116" d="M17.823,20H6.473A.473.473,0,0,0,6,20.473v6.621a1.419,1.419,0,0,0,1.419,1.419h9.458A1.419,1.419,0,0,0,18.3,27.094V20.473A.473.473,0,0,0,17.823,20Zm-.473,7.094a.473.473,0,0,1-.473.473H7.419a.473.473,0,0,1-.473-.473V20.946h10.4Z" transform="translate(-6 -17.163)" fill="#0074bf"/>
    <path id="Path_96117" data-name="Path 96117" d="M17.823,11.783H6.473A.473.473,0,0,1,6,11.31v-.473a.473.473,0,0,1,.14-.333L8.227,8.416A1.419,1.419,0,0,1,9.23,8h5.836a1.419,1.419,0,0,1,1,.416L18.156,10.5a.473.473,0,0,1,.14.333v.473A.473.473,0,0,1,17.823,11.783ZM7.142,10.837H17.153L15.4,9.085a.473.473,0,0,0-.336-.14H9.23a.473.473,0,0,0-.333.14ZM13.9,15.9l-1.419,1.419a.818.818,0,0,1-.069.059l-.076.04a.473.473,0,0,1-.083.026.43.43,0,0,1-.18,0,.473.473,0,0,1-.083-.026l-.076-.04a.818.818,0,0,1-.069-.059L10.429,15.9a.473.473,0,0,1,.667-.667l.579.61V13.2a.473.473,0,1,1,.946,0v2.641l.612-.61a.473.473,0,0,1,.667.667Z" transform="translate(-6 -8)" fill="#0074bf"/>
  </g>
</svg>
