<svg xmlns="http://www.w3.org/2000/svg" width="25.134" height="26.428" viewBox="0 0 25.134 26.428">
  <path id="_9f7e00d2ca5bfbb027c7c64f7aefa395" data-name="9f7e00d2ca5bfbb027c7c64f7aefa395" d="M20.844,3.537A13,13,0,0,0,4.3,7.2V3.952a.65.65,0,1,0-1.3,0v5.2a.65.65,0,0,0,.65.649h5.2a.65.65,0,0,0,0-1.3H4.98A11.689,11.689,0,1,1,14.7,26.7a.65.65,0,0,0,0,1.3A13,13,0,0,0,20.844,3.537ZM14.7,9.8a.65.65,0,0,0-.65.65V15a.65.65,0,0,0,.65.649h3.25a.65.65,0,1,0,0-1.3h-2.6v-3.9A.65.65,0,0,0,14.7,9.8Z" transform="translate(-2.8 -1.772)" fill="#0074bf" stroke="#0074bf" stroke-width="0.4"/>
</svg>
