<svg xmlns="http://www.w3.org/2000/svg" width="24.775" height="26.409" viewBox="0 0 24.775 26.409">
  <path id="_2e746ddacacf202af82cf4480bae6173" data-name="2e746ddacacf202af82cf4480bae6173" d="M16.164,3l0,0h-.01a.5.5,0,0,0-.17.043L4.422,7.988a.5.5,0,0,0-.422.5v15a.5.5,0,0,0,.043.207l0,.006.014.027a.5.5,0,0,0,.255.239l11.567,4.945a.549.549,0,0,0,.621,0l11.56-4.941a.5.5,0,0,0,.307-.4q0-.013,0-.027t0-.024,0-.025s0-.005,0-.008v-15a.5.5,0,0,0-.414-.5L16.406,3.05,16.4,3.045a.5.5,0,0,0-.082-.027l-.014,0-.035-.008L16.25,3l-.037,0Zm.023,1.045,2.45,1.047L8.25,9.535l-.03.014L5.769,8.5l10.42-4.455ZM19.91,5.637l2.973,1.271L12.3,11.434A.673.673,0,0,0,12,12v5.35l-1.084-1.627a.5.5,0,0,0-.639-.17L9,16.193V10.3L19.91,5.637Zm4.244,1.814L26.607,8.5l-10.42,4.455-2.45-1.047L24.125,7.465l.03-.014ZM5,9.258l3,1.283V17a.5.5,0,0,0,.723.447l1.6-.8,1.729,2.592,0,0a.5.5,0,0,0,.252.227l0,0,.044.015a.495.495,0,0,0,.209.018l.041-.008.03-.008.025-.008a.5.5,0,0,0,.082-.035l0,0a.5.5,0,0,0,.254-.5v-6.26l2.688,1.15V27.746L5,23.174Zm22.375,0V23.174L16.687,27.746V13.83Z" transform="translate(-3.8 -2.8)" fill="#0074bf" stroke="#0074bf" stroke-width="0.4" fill-rule="evenodd"/>
</svg>
