<svg xmlns="http://www.w3.org/2000/svg" width="27.302" height="25.093" viewBox="0 0 27.302 25.093">
  <path id="f36090769ad7d30db2b6fb519cf1a2da" d="M14.651,3S6.825,9.756,2.452,13.414A1.317,1.317,0,0,0,2,14.386a1.265,1.265,0,0,0,1.265,1.265H5.8v8.856A1.265,1.265,0,0,0,7.06,25.772h3.8a1.265,1.265,0,0,0,1.265-1.265v-5.06h5.06v5.06a1.265,1.265,0,0,0,1.265,1.265h3.8a1.265,1.265,0,0,0,1.265-1.265V15.651h2.53A1.265,1.265,0,0,0,27.3,14.386a1.24,1.24,0,0,0-.485-.972C22.474,9.756,14.651,3,14.651,3Z" transform="translate(-1 -1.679)" fill="none" stroke="#0074bf" stroke-width="2"/>
</svg>
