<svg xmlns="http://www.w3.org/2000/svg" width="15.595" height="15.595" viewBox="0 0 15.595 15.595">
  <g id="a0a33e7bbd1a6a47e60b30f0e4a4cd3d" transform="translate(-1 -1)">
    <path id="Path_37714" data-name="Path 37714" d="M16.06,8.8a2.571,2.571,0,0,1,.234-.812,2.316,2.316,0,0,0,.228-1.6,2.467,2.467,0,0,0-1.189-1.189,2.681,2.681,0,0,1-.667-.5,2.486,2.486,0,0,1-.3-.766,2.4,2.4,0,0,0-.806-1.441A2.586,2.586,0,0,0,11.918,2.2a2.892,2.892,0,0,1-.883-.038,2.622,2.622,0,0,1-.7-.445A2.568,2.568,0,0,0,8.8,1a2.571,2.571,0,0,0-1.543.716,2.606,2.606,0,0,1-.7.445,2.909,2.909,0,0,1-.883.038,2.589,2.589,0,0,0-1.645.284,2.391,2.391,0,0,0-.805,1.44,2.5,2.5,0,0,1-.3.766,2.675,2.675,0,0,1-.667.5A2.476,2.476,0,0,0,1.072,6.381a2.319,2.319,0,0,0,.228,1.6,2.574,2.574,0,0,1,.235.812,2.571,2.571,0,0,1-.234.812,2.316,2.316,0,0,0-.228,1.6A2.467,2.467,0,0,0,2.261,12.4a2.681,2.681,0,0,1,.667.5,2.486,2.486,0,0,1,.3.766,2.4,2.4,0,0,0,.806,1.441,2.588,2.588,0,0,0,1.645.283,2.923,2.923,0,0,1,.883.038,2.622,2.622,0,0,1,.7.445,2.568,2.568,0,0,0,1.543.716,2.571,2.571,0,0,0,1.543-.716,2.606,2.606,0,0,1,.7-.445,2.891,2.891,0,0,1,.883-.038,2.581,2.581,0,0,0,1.645-.284,2.4,2.4,0,0,0,.806-1.44,2.486,2.486,0,0,1,.3-.766,2.688,2.688,0,0,1,.667-.5,2.476,2.476,0,0,0,1.189-1.189,2.319,2.319,0,0,0-.228-1.6A2.574,2.574,0,0,1,16.06,8.8Zm-.731,1.2a1.684,1.684,0,0,1,.209.886c-.075.22-.419.433-.752.639a3.346,3.346,0,0,0-.947.757,3.212,3.212,0,0,0-.47,1.115,1.712,1.712,0,0,1-.4.869,1.918,1.918,0,0,1-1,.1,3.588,3.588,0,0,0-1.242.084,3.368,3.368,0,0,0-1.026.618,1.823,1.823,0,0,1-.9.5,1.829,1.829,0,0,1-.9-.5,3.345,3.345,0,0,0-1.026-.618,2.594,2.594,0,0,0-.772-.1c-.157,0-.314.008-.469.015a1.924,1.924,0,0,1-1-.1,1.718,1.718,0,0,1-.4-.869,3.216,3.216,0,0,0-.47-1.115,3.35,3.35,0,0,0-.948-.757c-.333-.206-.677-.419-.751-.639a1.69,1.69,0,0,1,.209-.886,3.316,3.316,0,0,0,.309-1.2,3.305,3.305,0,0,0-.309-1.2,1.684,1.684,0,0,1-.209-.886c.075-.22.419-.433.752-.639a3.346,3.346,0,0,0,.947-.757A3.212,3.212,0,0,0,4.226,4.2a1.708,1.708,0,0,1,.4-.869,1.9,1.9,0,0,1,1-.1,3.588,3.588,0,0,0,1.242-.084,3.368,3.368,0,0,0,1.026-.618,1.823,1.823,0,0,1,.9-.5,1.829,1.829,0,0,1,.9.5,3.345,3.345,0,0,0,1.026.618,3.611,3.611,0,0,0,1.242.084,1.912,1.912,0,0,1,1,.1,1.718,1.718,0,0,1,.4.869,3.216,3.216,0,0,0,.47,1.115,3.35,3.35,0,0,0,.948.757c.333.206.677.419.751.639a1.69,1.69,0,0,1-.209.886,3.31,3.31,0,0,0-.309,1.2A3.313,3.313,0,0,0,15.329,9.994Z" fill="#2b9927"/>
    <circle id="Ellipse_1682" data-name="Ellipse 1682" cx="1" cy="1" r="1" transform="translate(5 6)" fill="#2b9927"/>
    <circle id="Ellipse_1683" data-name="Ellipse 1683" cx="1" cy="1" r="1" transform="translate(10 10)" fill="#2b9927"/>
    <path id="Path_37715" data-name="Path 37715" d="M15.907,10.075a.52.52,0,0,0-.713.178l-3.119,5.2a.52.52,0,0,0,.891.535l3.119-5.2A.519.519,0,0,0,15.907,10.075Z" transform="translate(-5.282 -4.322)" fill="#2b9927"/>
  </g>
</svg>
