<svg xmlns="http://www.w3.org/2000/svg" width="16.773" height="15.217" viewBox="0 0 16.773 15.217">
  <g id="_529ed05bd93e32e5c7d8474a4e2ee219" data-name="529ed05bd93e32e5c7d8474a4e2ee219" transform="translate(0.001 -23.753)">
    <path id="Path_96145" data-name="Path 96145" d="M64.934,81.963a1.791,1.791,0,1,0,1.791,1.791A1.793,1.793,0,0,0,64.934,81.963Zm0,2.427a.636.636,0,1,1,.636-.636A.629.629,0,0,1,64.934,84.39Z" transform="translate(-61.075 -56.303)" fill="#0074bf"/>
    <path id="Path_96146" data-name="Path 96146" d="M7.71,27.43a3.917,3.917,0,0,0-3.851-3.677A3.916,3.916,0,0,0,.009,27.43a4,4,0,0,0,.807,2.641L3.4,33.519a.578.578,0,0,0,.925,0l2.584-3.452a4,4,0,0,0,.8-2.636ZM5.978,29.378l-2.118,2.83L1.744,29.382a2.846,2.846,0,0,1-.582-1.871,2.763,2.763,0,0,1,2.7-2.6,2.763,2.763,0,0,1,2.7,2.6A2.842,2.842,0,0,1,5.978,29.378Zm6.935,1.5a1.791,1.791,0,0,0,0,3.583A1.826,1.826,0,0,0,14.7,32.671,1.793,1.793,0,0,0,12.912,30.88Zm0,2.427a.636.636,0,1,1,.636-.652A.659.659,0,0,1,12.912,33.307Z" transform="translate(0)" fill="#0074bf"/>
    <path id="Path_96147" data-name="Path 96147" d="M284.065,186.776a3.855,3.855,0,0,0-7.7,0,4,4,0,0,0,.807,2.641l2.581,3.448a.578.578,0,0,0,.925,0l2.584-3.452A4,4,0,0,0,284.065,186.776Zm-1.733,1.948-2.119,2.83-2.116-2.826a2.845,2.845,0,0,1-.582-1.871,2.7,2.7,0,0,1,5.4,0A2.841,2.841,0,0,1,282.332,188.724Z" transform="translate(-267.301 -154.126)" fill="#0074bf"/>
    <path id="Path_96148" data-name="Path 96148" d="M108.408,296.383l.578-1,9.073,5.239-.578,1Z" transform="translate(-104.857 -262.73)" fill="#0074bf"/>
  </g>
</svg>
