<svg xmlns="http://www.w3.org/2000/svg" width="23.21" height="30.947" viewBox="0 0 23.21 30.947">
  <g id="droplet" transform="translate(-4.5)">
    <path id="Path_7975" data-name="Path 7975" d="M14.578,1.547C15.506.571,16.105,0,16.105,0a20.945,20.945,0,0,0,.718,2.008,31.116,31.116,0,0,0,6.183,8.9c2.534,2.82,4.7,5.235,4.7,8.437a11.605,11.605,0,0,1-23.21,0C4.5,12.9,11.424,4.868,14.578,1.547Zm.8,1.975q-1.864,2.017-3.538,4.2a37.213,37.213,0,0,0-3.791,5.938,13.388,13.388,0,0,0-1.613,5.687,9.671,9.671,0,0,0,19.342,0c0-2.323-1.54-4.172-4.218-7.157l-.058-.062a34.221,34.221,0,0,1-6.123-8.6Z" fill="#0074bf" fill-rule="evenodd"/>
    <path id="Path_7976" data-name="Path 7976" d="M10.244,16.508a25.71,25.71,0,0,1,4.048-6.054l1.369,1.369a23.919,23.919,0,0,0-3.689,5.552l-1.729-.867Z" transform="translate(-0.806 -1.467)" fill="#0074bf" fill-rule="evenodd"/>
  </g>
</svg>
