<svg xmlns="http://www.w3.org/2000/svg" width="15.217" height="15.217" viewBox="0 0 15.217 15.217">
  <path id="_5e94a90cc30706fa992f8ced1c38048b" data-name="5e94a90cc30706fa992f8ced1c38048b" d="M7.875.264A7.608,7.608,0,1,0,15.48,7.87,7.621,7.621,0,0,0,7.875.264Zm0,1.383A6.227,6.227,0,1,1,1.647,7.87,6.212,6.212,0,0,1,7.875,1.647ZM7.864,3.02a.691.691,0,0,0-.685.705V7.87a.691.691,0,0,0,.205.489l2.766,2.767a.691.691,0,1,0,.975-.981L8.564,7.584V3.726a.691.691,0,0,0-.7-.705Z" transform="translate(-0.264 -0.264)" fill="#0074bf" fill-rule="evenodd"/>
</svg>
