<svg xmlns="http://www.w3.org/2000/svg" width="84.757" height="84.757" viewBox="0 0 84.757 84.757">
  <g id="Group_87613" data-name="Group 87613" transform="translate(-28 -466)">
    <g id="_5" data-name="5" transform="translate(28 466)">
      <path id="Path_96125" data-name="Path 96125" d="M44.378,2A42.378,42.378,0,1,0,86.757,44.378,42.378,42.378,0,0,0,44.378,2Zm0,76.281a33.9,33.9,0,1,1,33.9-33.9A33.9,33.9,0,0,1,44.378,78.281Z" transform="translate(-2 -2)" fill="#ff6060"/>
    </g>
    <path id="Path_96167" data-name="Path 96167" d="M18.935,48.947a4.935,4.935,0,1,1,4.935-4.935A4.935,4.935,0,0,1,18.935,48.947ZM18.935,44.012Zm0-9.87a2.467,2.467,0,0,1-2.467-2.467V9.467a2.467,2.467,0,0,1,4.935,0V31.675A2.467,2.467,0,0,1,18.935,34.142Z" transform="translate(51.443 480.405)" fill="#ff6060"/>
  </g>
</svg>
