<svg xmlns="http://www.w3.org/2000/svg" width="15.9" height="14.866" viewBox="0 0 15.9 14.866">
  <path id="Path_96121" data-name="Path 96121" d="M1.517,4.584H1.59a2.057,2.057,0,0,0,3.987,0H15.983a.517.517,0,0,0,0-1.033H5.577a2.057,2.057,0,0,0-3.987,0H1.517a.517.517,0,1,0,0,1.033Zm2.067-1.55A1.033,1.033,0,1,1,2.55,4.067,1.033,1.033,0,0,1,3.583,3.034Zm12.4,5.683H15.91a2.057,2.057,0,0,0-3.987,0H1.517a.517.517,0,1,0,0,1.033H11.923a2.057,2.057,0,0,0,3.987,0h.073a.517.517,0,0,0,0-1.033Zm-2.067,1.55A1.033,1.033,0,1,1,14.95,9.234,1.033,1.033,0,0,1,13.917,10.267Zm2.067,3.617h-5.24a2.057,2.057,0,0,0-3.987,0H1.517a.517.517,0,1,0,0,1.033h5.24a2.057,2.057,0,0,0,3.987,0h5.24a.517.517,0,0,0,0-1.033ZM8.75,15.434A1.033,1.033,0,1,1,9.783,14.4,1.033,1.033,0,0,1,8.75,15.434Z" transform="translate(-0.8 -1.801)" fill="#26a57e" stroke="#26a57e" stroke-width="0.4"/>
</svg>
