<svg xmlns="http://www.w3.org/2000/svg" width="17.457" height="17.457" viewBox="0 0 17.457 17.457">
  <g id="aa576bd59c6ca9a344a593c6c22984d9" transform="translate(-3 -3)">
    <path id="Path_96127" data-name="Path 96127" d="M9.649,15.371a.97.97,0,0,0,1.552,0l4.364-5.819a.97.97,0,1,0-1.552-1.164l-3.588,4.752-.679-.873a1.043,1.043,0,0,0-1.358-.194,1.043,1.043,0,0,0-.194,1.358l1.455,1.94Z" transform="translate(-0.152 -0.152)" fill="#26a57e"/>
    <path id="Path_96128" data-name="Path 96128" d="M11.728,20.457A8.728,8.728,0,1,0,3,11.728,8.692,8.692,0,0,0,11.728,20.457Zm0-15.517A6.789,6.789,0,1,1,4.94,11.728,6.747,6.747,0,0,1,11.728,4.94Z" transform="translate(0 0)" fill="#26a57e"/>
  </g>
</svg>
