<svg xmlns="http://www.w3.org/2000/svg" width="22.544" height="22.544" viewBox="0 0 22.544 22.544">
  <path id="Path_96130" data-name="Path 96130" d="M23.362,18.384l-3.188-.364a2.5,2.5,0,0,0-2.058.715l-2.309,2.309a18.882,18.882,0,0,1-8.27-8.27l2.322-2.322a2.5,2.5,0,0,0,.715-2.058L10.21,5.231a2.512,2.512,0,0,0-2.5-2.221H5.541a2.491,2.491,0,0,0-2.51,2.6A21.324,21.324,0,0,0,22.973,25.55a2.491,2.491,0,0,0,2.6-2.51V20.869A2.487,2.487,0,0,0,23.362,18.384Z" transform="translate(-3.026 -3.01)" fill="#26a57e"/>
</svg>
