<svg xmlns="http://www.w3.org/2000/svg" width="13.965" height="13.965" viewBox="0 0 13.965 13.965">
  <g id="_5" data-name="5" transform="translate(-2 -2)">
    <path id="Path_96125" data-name="Path 96125" d="M8.983,2a6.983,6.983,0,1,0,6.983,6.983A6.983,6.983,0,0,0,8.983,2Zm0,12.569a5.586,5.586,0,1,1,5.586-5.586A5.586,5.586,0,0,1,8.983,14.569Z" fill="#fff"/>
    <path id="Path_96126" data-name="Path 96126" d="M10.775,6a.7.7,0,0,0-.7.7V9.9L8.185,11.789a.7.7,0,1,0,.985.985l2.095-2.095a.7.7,0,0,0,.209-.489V6.7A.7.7,0,0,0,10.775,6Z" transform="translate(-1.792 -1.207)" fill="#fff"/>
  </g>
</svg>
