<svg xmlns="http://www.w3.org/2000/svg" width="128.689" height="128.689" viewBox="0 0 128.689 128.689">
  <g id="Group_87189" data-name="Group 87189" transform="translate(-71 -340.655)">
    <g id="Layer_2" data-name="Layer 2" transform="translate(71 340.655)">
      <g id="_ÎÓÈ_1" data-name="—ÎÓÈ 1" transform="translate(0 0)">
        <path id="Path_96131" data-name="Path 96131" d="M44.983,8.432c44.315,0,27.046,73.436,0,73.436-25.542,0-44.315-73.436,0-73.436Z" transform="translate(19.839 9.126)" fill="#ffe8be" fill-rule="evenodd"/>
        <circle id="Ellipse_1724" data-name="Ellipse 1724" cx="64.345" cy="64.345" r="64.345" fill="#61d1ae"/>
        <path id="Path_96133" data-name="Path 96133" d="M24.744,38.68l26.927.252v26.9L24.744,65.58Z" transform="translate(26.782 41.865)" fill="#f9dca4" fill-rule="evenodd"/>
        <path id="Path_96134" data-name="Path 96134" d="M51.579,38.994v7.455c0,.618,0,.235,0,1.068a3.336,3.336,0,0,1-.233,1.745c-9.1,8.671-24.193,4.127-26.508-10.685Z" transform="translate(26.878 41.755)" fill-rule="evenodd" opacity="0.11"/>
        <path id="Path_96135" data-name="Path 96135" d="M100.507,63.626c-5.656-13.092-18.56-14.354-31.489-20.47,0,11.274-26.929,10.368-26.929-.55C30.494,47.855,13.706,50.353,8.717,63.016a64.336,64.336,0,0,0,91.79.61Z" transform="translate(9.435 46.116)" fill="#498bd9" fill-rule="evenodd"/>
        <path id="Path_96136" data-name="Path 96136" d="M45.653,25.541c6.164,2.686.26,13.608-2.713,12.548-4.794-1.712,2.424-7.463,2.713-12.55Z" transform="translate(44.702 27.642)" fill="#f9dca4" fill-rule="evenodd"/>
        <path id="Path_96137" data-name="Path 96137" d="M44.479,8.666c18.162,0,25.773,12.911,26.24,27.835C71.358,56.929,58.9,81.126,44.481,81.126c-13.66,0-26.458-25.026-25.682-45.662.541-14.479,7.942-26.8,25.68-26.8Z" transform="translate(20.311 9.38)" fill="#ffe8be" fill-rule="evenodd"/>
        <path id="Path_96138" data-name="Path 96138" d="M67.228,20.216S56.477,46.61,14.336,37.809c10.522-4.091,9.346-10.064,8.6-17.593Z" transform="translate(15.517 21.881)" fill="#464449" fill-rule="evenodd"/>
        <path id="Path_96139" data-name="Path 96139" d="M33.665,22.117S39.77,41.68,60.808,43.186a24.27,24.27,0,0,1-5.972-7,9.454,9.454,0,0,0,5.91.641c-5.114-3.836-6.389-6.953-5.529-14.347S33.665,22.117,33.665,22.117Z" transform="translate(36.438 19.486)" fill="#464449" fill-rule="evenodd"/>
        <ellipse id="Ellipse_1725" data-name="Ellipse 1725" cx="32.435" cy="7.511" rx="32.435" ry="7.511" transform="translate(32.668 41.986)" fill="#58b0e0"/>
        <path id="Path_96140" data-name="Path 96140" d="M36.175,6.623H54.054A17.76,17.76,0,0,1,71.763,24.329V38.052h-53.3V24.329A17.76,17.76,0,0,1,36.175,6.623Z" transform="translate(19.988 7.168)" fill="#2881bb" fill-rule="evenodd"/>
        <path id="Path_96142" data-name="Path 96142" d="M30.41,46.686l2.626.025V53.9H30.41V46.686Z" transform="translate(32.914 50.531)" fill="#e6e6e6" fill-rule="evenodd"/>
        <path id="Path_96143" data-name="Path 96143" d="M30.384,74.391l.106-24.243,2.628.01L33.012,74.4Z" transform="translate(32.886 54.278)" fill="#fff" opacity="0.33"/>
        <path id="Path_96144" data-name="Path 96144" d="M9.086,63.081a26.654,26.654,0,0,1,12.74-12.334c8.654-3.721,19.966-7.465,20-7.476l.666,1.674c-.031.01-11.363,3.727-19.966,7.426A26.336,26.336,0,0,0,10.348,64.3Zm90.258.581A26.637,26.637,0,0,0,86.608,51.337c-8.654-3.721-18.268-6.893-18.3-6.9l-.816,1.618c.031.01,9.816,3.211,18.416,6.909a26.279,26.279,0,0,1,12.165,11.9l.781-.729Z" transform="translate(9.834 46.836)" fill="#e6e6e6" fill-rule="evenodd"/>
      </g>
    </g>
  </g>
</svg>
