<svg xmlns="http://www.w3.org/2000/svg" width="13.299" height="13.277" viewBox="0 0 13.299 13.277">
  <path id="eaa1d1e26bc17e8c04812e3f9e0b0723" d="M7.812,1.009a6.465,6.465,0,0,0-.869.012v0A6.484,6.484,0,1,0,13.949,6.99a.463.463,0,1,0-.924.069,5.562,5.562,0,1,1-1.4-3.272h-.9a.463.463,0,1,0,0,.926h1.852a.463.463,0,0,0,.463-.463V2.4a.463.463,0,1,0-.926,0v.571a6.487,6.487,0,0,0-4.3-1.959ZM7.484,6.094A1.389,1.389,0,1,0,8.873,7.484,1.4,1.4,0,0,0,7.484,6.094Zm0,.926a.466.466,0,1,1-.463.463A.456.456,0,0,1,7.484,7.02Z" transform="translate(-0.821 -0.85)" fill="#fff" stroke="#fff" stroke-width="0.3"/>
</svg>
