<svg id="b2fd1239c1a0843ba97efacce9e74fec" xmlns="http://www.w3.org/2000/svg" width="21.714" height="21.714" viewBox="0 0 21.714 21.714">
  <path id="Path_96157" data-name="Path 96157" d="M21.831,12.412,13.688,4.27a.9.9,0,0,0-1.276,0L4.27,12.412a.906.906,0,0,0,0,1.28l8.143,8.138v0a.906.906,0,0,0,1.28,0l8.143-8.143a.9.9,0,0,0,0-1.28Zm-6.971,2.9V13.05H11.241v2.714H9.431V12.146a.9.9,0,0,1,.9-.9H14.86V8.979l3.167,3.167Z" transform="translate(-2.193 -2.193)" fill="#26a57e"/>
  <path id="Path_96158" data-name="Path 96158" d="M0,0H21.714V21.714H0Z" fill="none"/>
</svg>
