<svg xmlns="http://www.w3.org/2000/svg" xmlns:xlink="http://www.w3.org/1999/xlink" width="111" height="111" viewBox="0 0 111 111">
  <defs>
    <clipPath id="clip-path">
      <rect id="Rectangle_122882" data-name="Rectangle 122882" width="111" height="111" fill="#fff"/>
    </clipPath>
  </defs>
  <g id="ce22c62483ca9243cc7f3e997a7428a5" clip-path="url(#clip-path)">
    <path id="Path_7870" data-name="Path 7870" d="M59.072,3.811a8.137,8.137,0,0,0-12.592,0L41.867,9.444a1.162,1.162,0,0,1-1.31.351L33.746,7.223a8.137,8.137,0,0,0-10.906,6.3L21.663,20.7a1.163,1.163,0,0,1-.959.959L13.52,22.84a8.137,8.137,0,0,0-6.3,10.906L9.8,40.556a1.163,1.163,0,0,1-.351,1.31L3.812,46.479a8.138,8.138,0,0,0,0,12.593l5.633,4.612a1.163,1.163,0,0,1,.351,1.31L7.223,71.8a8.137,8.137,0,0,0,6.3,10.905L20.7,83.887a1.163,1.163,0,0,1,.959.959l1.178,7.184a8.138,8.138,0,0,0,10.906,6.3l6.811-2.572a1.162,1.162,0,0,1,1.31.351l4.612,5.633a8.137,8.137,0,0,0,12.592,0l4.612-5.633a1.162,1.162,0,0,1,1.31-.351L71.8,98.327a8.137,8.137,0,0,0,10.905-6.3l1.178-7.184a1.162,1.162,0,0,1,.959-.959l7.185-1.177a8.138,8.138,0,0,0,6.3-10.905l-2.573-6.811a1.163,1.163,0,0,1,.351-1.31l5.633-4.612a8.138,8.138,0,0,0,0-12.593l-5.633-4.612a1.163,1.163,0,0,1-.351-1.31l2.573-6.811a8.138,8.138,0,0,0-6.3-10.906l-7.185-1.178a1.162,1.162,0,0,1-.959-.959L82.71,13.519A8.137,8.137,0,0,0,71.8,7.223L64.994,9.8a1.163,1.163,0,0,1-1.31-.351Z" transform="translate(3.026 3.024)" fill="#00b777"/>
    <path id="Path_7871" data-name="Path 7871" d="M62.853,8.771a3.487,3.487,0,0,1,0,4.932L30.3,46.253a3.487,3.487,0,0,1-4.932,0l-18.6-18.6A3.487,3.487,0,1,1,11.7,22.721L27.837,38.855,57.921,8.771A3.487,3.487,0,0,1,62.853,8.771Z" transform="translate(20.987 28.287)" fill="#fff" fill-rule="evenodd"/>
  </g>
</svg>
