<svg xmlns="http://www.w3.org/2000/svg" width="13.965" height="13.965" viewBox="0 0 13.965 13.965">
  <g id="Group_87612" data-name="Group 87612" transform="translate(-28 -466)">
    <g id="_5" data-name="5" transform="translate(26 464)">
      <path id="Path_96125" data-name="Path 96125" d="M8.983,2a6.983,6.983,0,1,0,6.983,6.983A6.983,6.983,0,0,0,8.983,2Zm0,12.569a5.586,5.586,0,1,1,5.586-5.586A5.586,5.586,0,0,1,8.983,14.569Z" fill="#fff"/>
    </g>
    <path id="Path_96167" data-name="Path 96167" d="M14.813,13.912a.813.813,0,1,1,.813-.813A.813.813,0,0,1,14.813,13.912ZM14.813,13.1Zm0-1.626a.407.407,0,0,1-.407-.407V7.407a.407.407,0,1,1,.813,0v3.659A.407.407,0,0,1,14.813,11.472Z" transform="translate(19.966 462.033)" fill="#fff"/>
  </g>
</svg>
