<svg xmlns="http://www.w3.org/2000/svg" width="28.164" height="28.126" viewBox="0 0 28.164 28.126">
  <g id="weightscale" transform="translate(2.47 2.501)" fill="none">
    <path d="M21.966,20.435a2.652,2.652,0,0,1-.972,1.91,3.121,3.121,0,0,1-2.1.78H4.424a3.119,3.119,0,0,1-2.1-.78,2.737,2.737,0,0,1-.995-1.91L.038,3.526A3.328,3.328,0,0,1,.852,1.039,2.919,2.919,0,0,1,3.158,0H20.044a2.953,2.953,0,0,1,2.317,1.04,3.305,3.305,0,0,1,.825,2.487ZM11.612,2.893A8.347,8.347,0,0,0,7.4,4.012,7.523,7.523,0,0,0,4.379,7.233L9.307,9.2,7.476,5.561a.754.754,0,0,1-.2-.52.733.733,0,0,1,.723-.723.644.644,0,0,1,.5.226L12.132,8.7a3.787,3.787,0,0,1,1.718.52l5-1.989a7.523,7.523,0,0,0-3.018-3.221,8.35,8.35,0,0,0-4.215-1.12Z" stroke="none"/>
    <path d="M 18.89117622375488 23.125 C 19.68961715698242 23.125 20.39034652709961 22.86493873596191 20.99336624145508 22.34482002258301 C 21.59637641906738 21.8246898651123 21.92043685913086 21.18795967102051 21.96553611755371 20.43461990356445 L 23.18638610839844 3.525619268417358 C 23.24652671813965 2.560969352722168 22.97142601013184 1.732029318809509 22.36110687255859 1.038819313049316 C 21.75078582763672 0.3456093072891235 20.97854614257812 -0.001000678981654346 20.04438591003418 -0.001000678981654346 L 3.157936334609985 -0.001000678981654346 C 2.22334623336792 -0.001000678981654346 1.454756259918213 0.3456093072891235 0.8521662950515747 1.038819313049316 C 0.2495763003826141 1.732029318809509 -0.02164370566606522 2.560969352722168 0.0384862944483757 3.525619268417358 L 1.326986312866211 20.43460845947266 C 1.387536287307739 21.18795967102051 1.71911633014679 21.8246898651123 2.321706295013428 22.34482002258301 C 2.924296379089355 22.86493873596191 3.625026226043701 23.125 4.423896312713623 23.125 L 18.89117622375488 23.125 M 7.99497652053833 4.318049430847168 C 7.799116134643555 4.318049430847168 7.62968635559082 4.389569282531738 7.486656188964844 4.532589435577393 C 7.343636512756348 4.675609111785889 7.272126197814941 4.845049381256104 7.272126197814941 5.040899276733398 C 7.272126197814941 5.236749172210693 7.339986324310303 5.410059452056885 7.475706100463867 5.560809135437012 L 9.306666374206543 9.200179100036621 L 4.378796100616455 7.233279228210449 C 5.0870361328125 5.83182954788208 6.092926502227783 4.758079528808594 7.396466255187988 4.01202917098999 C 8.699995994567871 3.265989303588867 10.10531616210938 2.892969369888306 11.61243629455566 2.892969369888306 C 13.11912631988525 2.893399238586426 14.52423667907715 3.266639232635498 15.82776641845703 4.012679100036621 C 17.13129615783691 4.758719444274902 18.13718605041504 5.832469463348389 18.84543609619141 7.23392915725708 L 13.84991645812988 9.223369598388672 C 13.39765644073486 8.936899185180664 12.82491588592529 8.763588905334473 12.13170623779297 8.703459739685059 L 8.492336273193359 4.544189453125 C 8.356606483459473 4.393429279327393 8.190826416015625 4.318049430847168 7.99497652053833 4.318049430847168 M 18.89117622375488 25.625 L 4.423896312713623 25.625 C 3.031736373901367 25.625 1.739946246147156 25.1451587677002 0.6881963014602661 24.23733901977539 C -0.4110037088394165 23.28855895996094 -1.051813721656799 22.04286003112793 -1.164973735809326 20.6348991394043 L -1.165783762931824 20.62455940246582 L -2.456673622131348 3.681149244308472 C -2.557373762130737 2.065599203109741 -2.065633773803711 0.5847493410110474 -1.034623742103577 -0.601310670375824 C 0.04570629447698593 -1.844100713729858 1.495466351509094 -2.501000642776489 3.157936334609985 -2.501000642776489 L 20.04438591003418 -2.501000642776489 C 21.7002067565918 -2.501000642776489 23.15015602111816 -1.848210692405701 24.23749542236328 -0.6132006645202637 C 25.28329658508301 0.5746293067932129 25.78263664245605 2.059609413146973 25.68154716491699 3.681179285049438 L 25.67989540100098 3.705649375915527 L 24.45996284484863 20.60196495056152 C 24.37018013000488 22.02334976196289 23.73636054992676 23.28034973144531 22.62624549865723 24.23789024353027 C 21.57413673400879 25.14534950256348 20.2825870513916 25.625 18.89117622375488 25.625 Z M 13.42365455627441 6.383495807647705 C 13.58477020263672 6.421745300292969 13.74206924438477 6.465365409851074 13.8954029083252 6.514303684234619 L 14.64401817321777 6.216171741485596 C 14.62478446960449 6.204836368560791 14.60540008544922 6.193577289581299 14.58595657348633 6.182449340820312 C 13.96001052856445 5.824207782745361 13.31345558166504 5.590112209320068 12.62927532196045 5.475636005401611 L 13.42365455627441 6.383495807647705 Z" stroke="none" fill="#0074bf"/>
  </g>
</svg>
