<svg xmlns="http://www.w3.org/2000/svg" width="13.508" height="16.885" viewBox="0 0 13.508 16.885">
  <path id="_2fd29c034b11ed3cc97e4d0928843b9a" data-name="2fd29c034b11ed3cc97e4d0928843b9a" d="M10.754,2A6.754,6.754,0,0,0,4,8.754c0,4.559,5.952,9.709,6.205,9.928a.844.844,0,0,0,1.1,0c.3-.22,6.205-5.369,6.205-9.928A6.754,6.754,0,0,0,10.754,2Zm0,14.9c-1.8-1.688-5.065-5.327-5.065-8.147a5.065,5.065,0,1,1,10.131,0C15.819,11.574,12.552,15.221,10.754,16.9Zm0-11.524a3.377,3.377,0,1,0,3.377,3.377A3.377,3.377,0,0,0,10.754,5.377Zm0,5.065a1.688,1.688,0,1,1,1.688-1.688A1.688,1.688,0,0,1,10.754,10.442Z" transform="translate(-4 -2)" fill="#fa9800"/>
</svg>
