<svg xmlns="http://www.w3.org/2000/svg" width="19.055" height="18" viewBox="0 0 19.055 18">
  <path id="customer_support" d="M19.7,10.2h-.886V9.613a7.287,7.287,0,0,0-14.574,0V10.2H3.355A1.355,1.355,0,0,0,2,11.552v2.994A1.354,1.354,0,0,0,3.355,15.9H4.968a.5.5,0,0,0,.5-.5V9.613a6.062,6.062,0,0,1,12.125,0v6.305a2.355,2.355,0,0,1-2.352,2.352H13.155a1.44,1.44,0,0,0-1.3-.831H11.2a1.443,1.443,0,1,0,0,2.887h.65a1.441,1.441,0,0,0,1.3-.831h2.082a3.58,3.58,0,0,0,3.576-3.576V15.9H19.7a1.355,1.355,0,0,0,1.355-1.354V11.553A1.354,1.354,0,0,0,19.7,10.2Z" transform="translate(-2 -2.326)" fill="#0074bf"/>
</svg>
