<svg xmlns="http://www.w3.org/2000/svg" xmlns:xlink="http://www.w3.org/1999/xlink" width="23" height="21" viewBox="0 0 23 21">
  <defs>
    <clipPath id="clip-path">
      <rect id="Rectangle_123269" data-name="Rectangle 123269" width="23" height="21" transform="translate(35 347.322)" fill="none" stroke="#0074bf" stroke-width="1"/>
    </clipPath>
  </defs>
  <g id="Mask_Group_500" data-name="Mask Group 500" transform="translate(-35 -347.322)" clip-path="url(#clip-path)">
    <g id="ebdfbab8cf56147cedd556d6d6ffa6ab" transform="translate(28.245 348.577)">
      <path id="Path_96163" data-name="Path 96163" d="M26.182,2.21a.515.515,0,0,0-.514-.514H22.636a2.721,2.721,0,0,0-5.242,1.028H25.72A.475.475,0,0,0,26.182,2.21ZM22.225,5.293V3.751H17.908V4.882a2.062,2.062,0,0,0,2.056,2.056h.617A1.623,1.623,0,0,0,22.225,5.293Zm8.634,5.653a.953.953,0,0,1,.36.1l.668.565V9.764h-2v1.85l.668-.565A.434.434,0,0,1,30.859,10.946ZM19.245,7.914l-.051.822h1.233l.1-.719h-.617A3.537,3.537,0,0,1,19.245,7.914ZM28.6,28.83h-.154l-1.542.154h-.308a1.141,1.141,0,0,1-.565-.257,1.335,1.335,0,0,1-.463-.822l-.257-2.826A5.376,5.376,0,0,0,25.1,24.2c-.051-.1-.1-.206-2.313-3.649l-.874-1.388H18.988a.514.514,0,0,1,0-1.028h2.724V14.749l.514-.719a.309.309,0,0,1,.206.051l.051.051c.051,0,.051.051.1.051l1.542,1.49a1.4,1.4,0,0,0,.976.411H28.6a.467.467,0,0,0,.36-.154h0c.051,0,.051-.051.051-.1a.73.73,0,0,0,.1-.308.527.527,0,0,0-.514-.514H25.874a3,3,0,0,1-1.953-.771l-.051-.051-.1-.1-.154-.154-.051-.051c-.051-.1-.1-.154-.154-.257l-.154-.308L21.66,10.278a.05.05,0,0,0-.051-.051l-.154-.154-.1-.1c-.051,0-.051-.051-.1-.051a.189.189,0,0,0-.154-.051c-.051,0-.051-.051-.1-.051s-.1-.051-.154-.051H19.193c-.154,0-.257.051-.411.051a1.123,1.123,0,0,0-.257.154l-.051.051a.4.4,0,0,0-.206.206h0c-.051.051-.1.154-.154.206,0,.051-.051.051-.051.1a.309.309,0,0,0-.051.206v.051l-1.028,9.353-.463,4.368a2.186,2.186,0,0,1-.1.565,4.961,4.961,0,0,1-1.131,2.107L14,28.47a.393.393,0,0,0-.1.257.953.953,0,0,0,.1.36l2.672,2.672a.493.493,0,0,0,.463.1c.051,0,.1-.051.154-.1s.051-.1.1-.154a.328.328,0,0,0,0-.308c0-.051-.051-.1-.051-.154l-.514-.719-.1-.1h0a1.559,1.559,0,0,1-.051-1.7.05.05,0,0,1,.051-.051l.976-1.388c.051-.051.051-.1.1-.154s.051-.1.1-.154c.051-.1.1-.154.1-.257,0-.051.051-.051.051-.1a2.946,2.946,0,0,0,.206-.719l.822-4.574c0-.1.1-.206.206-.308a.39.39,0,0,1,.206-.1h.154c.051,0,.154.051.206.051.051.051.154.1.206.154l.36.514,2.929,4.317a3.3,3.3,0,0,1,.565,1.542v.154l.308,2.878c0,.051,0,.051.051.051v.051l.051.051c.051,0,.1.051.154,0l1.233-.463L28.6,29.035c.051,0,.051-.051.1-.051,0-.051.051-.051.051-.1,0-.1-.051-.1-.051-.154C28.649,28.83,28.649,28.83,28.6,28.83Z" transform="translate(-8.35)" fill="none" stroke="#0074bf" stroke-width="1"/>
      <path id="Path_96164" data-name="Path 96164" d="M29.874,19h-2.21l-.041.009L24.016,19H21.344a1.031,1.031,0,0,0-1.028,1.028l.1,5.837c.007,0,0,.535,0,.535v.822a.963.963,0,0,0,.976.617h8.531a1.031,1.031,0,0,0,1.028-1.028V20.028A1.112,1.112,0,0,0,29.874,19ZM32.29,41.1H3.614a.515.515,0,0,0-.514.514.553.553,0,0,0,.514.514H32.341a.515.515,0,0,0,.514-.514A.563.563,0,0,0,32.29,41.1Z" transform="translate(-3.1 -9.236)" fill="none" stroke="#0074bf" stroke-width="1"/>
    </g>
  </g>
</svg>
