<svg xmlns="http://www.w3.org/2000/svg" width="10.4" height="13" viewBox="0 0 10.4 13">
  <path id="_2fd29c034b11ed3cc97e4d0928843b9a" data-name="2fd29c034b11ed3cc97e4d0928843b9a" d="M9.2,2A5.2,5.2,0,0,0,4,7.2c0,3.51,4.582,7.475,4.777,7.644a.65.65,0,0,0,.845,0C9.85,14.675,14.4,10.71,14.4,7.2A5.2,5.2,0,0,0,9.2,2Zm0,11.472c-1.384-1.3-3.9-4.1-3.9-6.272a3.9,3.9,0,0,1,7.8,0C13.1,9.371,10.584,12.179,9.2,13.472ZM9.2,4.6a2.6,2.6,0,1,0,2.6,2.6A2.6,2.6,0,0,0,9.2,4.6Zm0,3.9a1.3,1.3,0,1,1,1.3-1.3A1.3,1.3,0,0,1,9.2,8.5Z" transform="translate(-4 -2)" fill="#737070"/>
</svg>
