<svg xmlns="http://www.w3.org/2000/svg" width="15.994" height="15.051" viewBox="0 0 15.994 15.051">
  <path id="Path_96161" data-name="Path 96161" d="M6.822,5.881A.941.941,0,0,0,6.822,4H4.941A.941.941,0,0,0,4,4.941V18.11a.941.941,0,0,0,.941.941H6.822a.941.941,0,0,0,0-1.881H5.881V5.881Zm13,5.1L17.169,7.217a.941.941,0,1,0-1.533,1.091l1.618,2.276H9.644a.941.941,0,0,0,0,1.881h7.525l-1.693,2.258a.941.941,0,0,0,1.505,1.129L19.8,12.09a.941.941,0,0,0,.019-1.11Z" transform="translate(-4 -4)" fill="#0074bf"/>
</svg>
