<svg xmlns="http://www.w3.org/2000/svg" width="20" height="20" viewBox="0 0 20 20">
  <g id="Layer_2" data-name="Layer 2" transform="translate(-0.24 0.354)">
    <g id="bell" transform="translate(0.24 0)">
      <rect id="Rectangle_122978" data-name="Rectangle 122978" width="20" height="20" transform="translate(0 -0.354)" fill="#0074bf" opacity="0"/>
      <path id="Path_7978" data-name="Path 7978" d="M17.694,13.078,16.184,11.56V7.82A5.753,5.753,0,0,0,11.3,2.051a5.652,5.652,0,0,0-6.39,5.593V11.56L3.4,13.078a1.375,1.375,0,0,0,.973,2.34H7.195V15.7a3.22,3.22,0,0,0,3.354,3.069A3.22,3.22,0,0,0,13.9,15.7v-.285h2.818a1.375,1.375,0,0,0,.973-2.34ZM12.226,15.7A1.577,1.577,0,0,1,10.549,17.1,1.577,1.577,0,0,1,8.872,15.7v-.285h3.354Zm-7.12-1.962.99-.99a1.677,1.677,0,0,0,.495-1.191V7.644A3.967,3.967,0,0,1,7.949,4.659a3.916,3.916,0,0,1,3.136-.981,4.076,4.076,0,0,1,3.422,4.109V11.56a1.677,1.677,0,0,0,.486,1.191l1,.99Z" transform="translate(-0.553 -0.323)" fill="#0074bf"/>
    </g>
  </g>
</svg>
