<svg xmlns="http://www.w3.org/2000/svg" width="17.029" height="17.029" viewBox="0 0 17.029 17.029">
  <g id="Group_87295" data-name="Group 87295" transform="translate(-138.001 -143.308)">
    <g id="_32d21e835f6e380a7552ebe80126eb89" data-name="32d21e835f6e380a7552ebe80126eb89" transform="translate(138.001 143.308)">
      <path id="Path_96129" data-name="Path 96129" d="M0,0H17.029V17.029H0Z" fill="none"/>
      <path id="Path_96130" data-name="Path 96130" d="M14.523,11.7l-1.8-.206a1.412,1.412,0,0,0-1.164.4l-1.306,1.306A10.675,10.675,0,0,1,5.576,8.53L6.889,7.218a1.412,1.412,0,0,0,.4-1.164L7.087,4.266A1.42,1.42,0,0,0,5.675,3.01H4.448A1.408,1.408,0,0,0,3.029,4.479,12.056,12.056,0,0,0,14.3,15.753a1.408,1.408,0,0,0,1.469-1.419V13.107A1.406,1.406,0,0,0,14.523,11.7Z" transform="translate(-0.879 -0.874)" fill="#fff"/>
    </g>
  </g>
</svg>
