<svg xmlns="http://www.w3.org/2000/svg" width="13.8" height="16.237" viewBox="0 0 13.8 16.237">
  <g id="_icons" transform="translate(-5 -2)">
    <path id="Path_96172" data-name="Path 96172" d="M18.008,20.633a.811.811,0,0,1-1.148,0L15.237,19.01a.815.815,0,0,1,0-1.149l1.623-1.623a.812.812,0,1,1,1.148,1.148l-.238.238h2.1a.812.812,0,0,1,0,1.624h-2.1l.238.238A.811.811,0,0,1,18.008,20.633Z" transform="translate(-1.882 -2.634)" fill="#0074bf"/>
    <path id="Path_96173" data-name="Path 96173" d="M6.7,14.878a2.825,2.825,0,0,1,1.746-1.907,6.255,6.255,0,0,1,4.447-.008L13,13a2.727,2.727,0,0,1,.776.481.812.812,0,1,0,1.08-1.213,4.22,4.22,0,0,0-1.183-.745.533.533,0,0,0-.1-.04c-.025-.012-.049-.023-.075-.033a7.858,7.858,0,0,0-5.627,0,4.45,4.45,0,0,0-2.739,3.017l-.074.289a1.927,1.927,0,0,0,.285,1.559,2.093,2.093,0,0,0,1.479.881,33.4,33.4,0,0,0,3.861.225c.323,0,.648-.008.971-.017a.812.812,0,0,0-.021-1.623h-.022a32.666,32.666,0,0,1-4.6-.2A.468.468,0,0,1,6.68,15.4a.29.29,0,0,1-.049-.24Zm8.039-8.819a4.059,4.059,0,1,0-4.059,4.059A4.064,4.064,0,0,0,14.742,6.059Zm-6.495,0a2.436,2.436,0,1,1,2.436,2.436A2.438,2.438,0,0,1,8.247,6.059Z" fill="#0074bf"/>
  </g>
</svg>
