<svg id="Group_87361" data-name="Group 87361" xmlns="http://www.w3.org/2000/svg" width="16.891" height="16.891" viewBox="0 0 16.891 16.891">
  <g id="_32d21e835f6e380a7552ebe80126eb89" data-name="32d21e835f6e380a7552ebe80126eb89" transform="translate(0)">
    <path id="Path_96129" data-name="Path 96129" d="M0,0H16.891V16.891H0Z" fill="none"/>
    <path id="Path_96130" data-name="Path 96130" d="M14.43,11.632l-1.788-.2a1.4,1.4,0,0,0-1.154.4l-1.295,1.295A10.589,10.589,0,0,1,5.556,8.486l1.3-1.3a1.4,1.4,0,0,0,.4-1.154l-.2-1.774a1.409,1.409,0,0,0-1.4-1.246H4.437A1.4,1.4,0,0,0,3.029,4.467,11.959,11.959,0,0,0,14.212,15.65a1.4,1.4,0,0,0,1.457-1.408V13.025A1.4,1.4,0,0,0,14.43,11.632Z" transform="translate(-0.896 -0.892)" fill="#26a57e"/>
  </g>
</svg>
